<svg id="Layer_1" data-name="Layer 1" xmlns="http://www.w3.org/2000/svg" viewBox="0 0 550.46 517.55">
  <title>CS-logo</title>
  <g>
    <path d="M281.64,43.32c-141.81,0-256.78,115-256.78,256.78s115,256.77,256.78,256.77,256.77-115,256.77-256.77S423.45,43.32,281.64,43.32Z" transform="translate(-22.86 -41.32)" style="fill: none;stroke: #fff;stroke-miterlimit: 10;stroke-width: 4px"/>
    <path d="M392.7,410.61a157.55,157.55,0,1,1,0-222.8A157.55,157.55,0,0,1,392.7,410.61Z" transform="translate(-22.86 -41.32)" style="fill: none;stroke: #fff;stroke-miterlimit: 10;stroke-width: 4px"/>
    <path d="M170.46,411.18l222.8-222.8Z" transform="translate(-22.86 -41.32)" style="fill: none;stroke: #000;stroke-miterlimit: 10;stroke-width: 4px"/>
    <polygon points="550.46 359.56 436.81 359.58 436.81 130.78 550.46 130.77 550.46 359.56" style="fill: #fff"/>
    <rect x="299.45" y="137.88" width="121.38" height="66.4" transform="translate(-38.35 263.45) rotate(-45)" style="fill: #fff"/>
    <rect x="135.73" y="401.88" width="121.38" height="66.4" transform="translate(-272.98 225) rotate(-45)" style="fill: #fff"/>
  </g>
</svg>
